<?xml version="1.0" encoding="UTF-8"?>
<!DOCTYPE svg PUBLIC "-//W3C//DTD SVG 1.1//EN" "http://www.w3.org/Graphics/SVG/1.1/DTD/svg11.dtd">
<!-- Creator: CorelDRAW X6 -->
<svg xmlns="http://www.w3.org/2000/svg" xml:space="preserve" width="5.90551in" height="5.90551in" version="1.1" style="shape-rendering:geometricPrecision; text-rendering:geometricPrecision; image-rendering:optimizeQuality; fill-rule:evenodd; clip-rule:evenodd"
viewBox="0 0 5906 5906"
 xmlns:xlink="http://www.w3.org/1999/xlink">
 <defs>
  <style type="text/css">
   <![CDATA[
    .fil0 {fill:#A9ABAE}
   ]]>
  </style>
 </defs>
 <g id="Layer_x0020_1">
  <metadata id="CorelCorpID_0Corel-Layer"/>
  <g id="_426698152">
   <path class="fil0" d="M594 314l4717 0c279,0 507,228 507,507l0 909 -5731 0 0 -909c0,-279 228,-507 507,-507zm-507 5102l0 0c0,-6 0,-12 0,-18l0 -3250 5731 0 0 3250c0,6 0,12 0,18l0 0 0 489 -507 0 -4717 0 -507 0 0 -489zm905 -2671l679 0 0 693 -679 0 0 -693zm1075 0l678 0 0 693 -678 0 0 -693zm1075 0l678 0 0 693 -678 0 0 -693zm1075 0l679 0 0 693 -679 0 0 -693zm-3226 935l679 0 0 693 -679 0 0 -693zm1075 0l678 0 0 693 -678 0 0 -693zm1075 0l678 0 0 693 -678 0 0 -693zm1075 0l679 0 0 693 -679 0 0 -693zm-3226 935l679 0 0 693 -679 0 0 -693zm1075 0l678 0 0 693 -678 0 0 -693zm1075 0l678 0 0 693 -678 0 0 -693zm1075 0l679 0 0 693 -679 0 0 -693z"/>
   <g>
    <rect class="fil0" x="1096" width="751" height="786"/>
    <rect class="fil0" x="4058" width="751" height="786"/>
   </g>
  </g>
 </g>
</svg>
