<?xml version="1.0" encoding="UTF-8"?>
<!DOCTYPE svg PUBLIC "-//W3C//DTD SVG 1.1//EN" "http://www.w3.org/Graphics/SVG/1.1/DTD/svg11.dtd">
<!-- Creator: CorelDRAW X6 -->
<svg xmlns="http://www.w3.org/2000/svg" xml:space="preserve" width="7.87402in" height="7.87402in" version="1.1" style="shape-rendering:geometricPrecision; text-rendering:geometricPrecision; image-rendering:optimizeQuality; fill-rule:evenodd; clip-rule:evenodd"
viewBox="0 0 7874 7874"
 xmlns:xlink="http://www.w3.org/1999/xlink">
 <defs>
  <style type="text/css">
   <![CDATA[
    .fil5 {fill:#4C7AB5}
    .fil4 {fill:#5885C2}
    .fil3 {fill:#79A114}
    .fil2 {fill:#91C217}
    .fil1 {fill:#E3B903}
    .fil0 {fill:#FFD000}
    .fil6 {fill:#E6E7E8;fill-rule:nonzero}
    .fil7 {fill:#FEFEFE;fill-rule:nonzero}
   ]]>
  </style>
 </defs>
 <g id="Layer_x0020_1">
  <metadata id="CorelCorpID_0Corel-Layer"/>
  <g id="_438747608">
   <polygon class="fil0" points="5523,5947 5442,1797 6537,1275 6618,5259 "/>
   <polygon class="fil1" points="4560,1284 5442,1797 5523,5947 4641,5271 "/>
   <polygon class="fil0" points="5442,1797 4560,1284 5649,857 6537,1275 "/>
   <polygon class="fil2" points="3871,6910 3790,845 4885,411 4966,6339 "/>
   <polygon class="fil3" points="2908,419 3790,845 3871,6910 2989,6350 "/>
   <polygon class="fil4" points="2137,4223 1256,3772 2344,3316 3233,3763 "/>
   <polygon class="fil2" points="3790,845 2908,419 3997,0 4885,411 "/>
   <polygon class="fil4" points="2219,7874 2137,4223 3233,3763 3314,7269 "/>
   <polygon class="fil5" points="1256,3772 2137,4223 2219,7874 1337,7280 "/>
   <polygon class="fil6" points="2170,5691 2035,5717 2113,6205 1986,6518 2191,6617 2192,6653 1898,6612 1860,6346 1972,6188 1739,6213 1514,6075 1348,6388 1473,5914 1714,6075 1972,6070 1972,5750 1992,5638 2168,5609 "/>
   <path class="fil7" d="M2923 5333l-266 110 -211 37 -275 211 -2 -82 172 -127 113 -396 325 -519 -288 581 0 218 431 -33zm-732 1271l105 -9 -104 45 -1 -36z"/>
   <polygon class="fil7" points="5458,2605 5481,2789 5665,3097 5805,3282 5573,3110 5464,2942 "/>
   <polygon class="fil7" points="5258,1690 5247,1887 5361,2144 5310,2276 5438,2445 5458,2605 5464,2942 5350,2765 5342,2505 5114,2302 5263,2102 4907,1990 4905,1893 5194,1972 5162,1774 5070,1581 "/>
   <polygon class="fil7" points="3810,1915 3908,1887 3926,2134 3836,2392 3883,2523 3817,2629 3822,3086 3861,3012 3861,2753 4050,2550 3918,2349 4302,2206 4423,1945 4253,2129 3974,2219 3996,2021 4132,1667 4133,1531 3897,1739 3808,1780 "/>
   <polygon class="fil7" points="5927,1566 5671,1590 5358,1567 5230,1674 5069,1580 5105,1234 5516,987 5202,1276 5208,1535 5318,1409 5683,1494 6218,1399 6225,1424 "/>
  </g>
 </g>
</svg>
