<?xml version="1.0" encoding="UTF-8"?>
<!DOCTYPE svg PUBLIC "-//W3C//DTD SVG 1.1//EN" "http://www.w3.org/Graphics/SVG/1.1/DTD/svg11.dtd">
<!-- Creator: CorelDRAW X6 -->
<svg xmlns="http://www.w3.org/2000/svg" xml:space="preserve" width="5.90551in" height="5.90551in" version="1.1" style="shape-rendering:geometricPrecision; text-rendering:geometricPrecision; image-rendering:optimizeQuality; fill-rule:evenodd; clip-rule:evenodd"
viewBox="0 0 5906 5906"
 xmlns:xlink="http://www.w3.org/1999/xlink">
 <defs>
  <style type="text/css">
   <![CDATA[
    .fil0 {fill:#A9ABAE}
   ]]>
  </style>
 </defs>
 <g id="Layer_x0020_1">
  <metadata id="CorelCorpID_0Corel-Layer"/>
  <g id="_384419856">
   <path class="fil0" d="M3885 4405l1832 351 -2561 1149 -2968 -569 2130 -956c273,401 553,774 792,1114 234,-332 507,-697 775,-1089z"/>
   <path class="fil0" d="M3110 0c925,0 1675,750 1675,1675 0,181 -29,356 -82,519 -263,1091 -1053,2064 -1593,2832 -541,-768 -1330,-1741 -1593,-2832 -53,-163 -82,-338 -82,-519 0,-925 750,-1675 1675,-1675zm0 996c375,0 680,304 680,680 0,375 -304,680 -680,680 -375,0 -680,-304 -680,-680 0,-375 304,-680 680,-680z"/>
  </g>
 </g>
</svg>
